<svg width="127" height="164" viewBox="0 0 127 164" fill="none" xmlns="http://www.w3.org/2000/svg">
<g id="Empty_doc" opacity="0.4">
<path d="M25.9862 76.3031C25.9862 73.3105 28.4122 70.8845 31.4048 70.8845H95.9762C98.9688 70.8845 101.395 73.3105 101.395 76.3031C101.395 79.2958 98.9688 81.7218 95.9762 81.7218H31.4048C28.4122 81.7218 25.9862 79.2958 25.9862 76.3031Z" fill="#DAFDFF"/>
<path d="M25.9862 99.9625C25.9862 96.9699 28.4122 94.5439 31.4048 94.5439H75.7652C78.7578 94.5439 81.1838 96.9699 81.1838 99.9625C81.1838 102.955 78.7578 105.381 75.7652 105.381H31.4048C28.4122 105.381 25.9862 102.955 25.9862 99.9625Z" fill="#DAFDFF"/>
<path d="M25.9862 123.622C25.9862 120.629 28.4122 118.203 31.4048 118.203H95.9762C98.9688 118.203 101.395 120.629 101.395 123.622C101.395 126.615 98.9688 129.041 95.9762 129.041H31.4048C28.4122 129.041 25.9862 126.615 25.9862 123.622Z" fill="#DAFDFF"/>
<path d="M54.4639 25.249C56.1625 23.5505 58.9163 23.5505 60.6148 25.249C62.3134 26.9475 62.3134 29.7014 60.6148 31.3999L51.5808 40.4339L60.6149 49.468C62.3134 51.1665 62.3134 53.9203 60.6149 55.6189C58.9164 57.3174 56.1625 57.3174 54.464 55.6189L45.4299 46.5848L36.396 55.6188C34.6975 57.3173 31.9436 57.3173 30.2451 55.6188C28.5466 53.9202 28.5466 51.1664 30.2451 49.4678L39.279 40.4339L30.2451 31.4C28.5466 29.7015 28.5466 26.9476 30.2451 25.2491C31.9436 23.5506 34.6975 23.5506 36.396 25.2491L45.4299 34.283L54.4639 25.249Z" fill="#DAFDFF"/>
<path fill-rule="evenodd" clip-rule="evenodd" d="M92.3793 5.88946C89.1275 2.63764 84.7171 0.810791 80.1183 0.810791H29.058C13.4964 0.810791 0.881104 13.426 0.881104 28.9877V135.423C0.881104 150.985 13.4964 163.6 29.058 163.6H98.323C113.885 163.6 126.5 150.985 126.5 135.423V47.1924C126.5 42.5936 124.673 38.1832 121.421 34.9314L92.3793 5.88946ZM31.3943 12.0384C20.2218 12.0384 11.1647 21.0956 11.1647 32.268V132.143C11.1647 143.315 20.2218 152.372 31.3943 152.372H95.9867C107.159 152.372 116.216 143.315 116.216 132.143V55.4968C116.216 52.7037 113.952 50.4394 111.159 50.4394H85.8114C81.0232 50.4394 77.1416 46.5578 77.1416 41.7696V17.0958C77.1416 14.3027 74.8773 12.0384 72.0842 12.0384H31.3943Z" fill="#DAFDFF"/>
</g>
</svg>
