<svg width="53" height="69" viewBox="0 0 53 69" fill="none" xmlns="http://www.w3.org/2000/svg">
<path d="M20.8672 32.9421V35.5968H17.7643V45.009H15.0062V35.5968H11.9033V32.9421H20.8672Z" fill="#DAF2FF"/>
<path d="M31.5556 45.009H28.4183L26.3841 41.5268L24.35 45.009H21.2126L24.8154 38.8204L21.385 32.9421H24.5224L26.3841 36.1312L28.2459 32.9421H31.3833L27.9528 38.8204L31.5556 45.009Z" fill="#DAF2FF"/>
<path d="M40.8664 35.5968V32.9421H31.9024V35.5968H35.0053V45.009H37.7635V35.5968H40.8664Z" fill="#DAF2FF"/>
<path fill-rule="evenodd" clip-rule="evenodd" d="M38.4363 2.13343C37.0703 0.767417 35.2176 0 33.2857 0H11.8365C5.29938 0 0 5.29937 0 11.8365V56.5474C0 63.0845 5.29938 68.3839 11.8365 68.3839H40.9331C47.4702 68.3839 52.7695 63.0845 52.7695 56.5474V19.4838C52.7695 17.552 52.0021 15.6993 50.6361 14.3333L38.4363 2.13343ZM12.8179 4.71646C8.12457 4.71646 4.3199 8.52115 4.3199 13.2145V55.1694C4.3199 59.8627 8.12457 63.6674 12.8179 63.6674H39.9517C44.645 63.6674 48.4496 59.8627 48.4496 55.1694V22.9723C48.4496 21.799 47.4985 20.8478 46.3251 20.8478H35.6772C33.6658 20.8478 32.0353 19.2173 32.0353 17.2058V6.84096C32.0353 5.66763 31.0841 4.71646 29.9108 4.71646H12.8179Z" fill="#DAF2FF"/>
</svg>
